<svg width="200" height="200" viewBox="0 0 200 200" xmlns="http://www.w3.org/2000/svg">
  <defs>
    <linearGradient id="cyberGreen" x1="0%" y1="0%" x2="100%" y2="100%">
      <stop offset="0%" style="stop-color:#00ff88;stop-opacity:1" />
      <stop offset="100%" style="stop-color:#00cc66;stop-opacity:1" />
    </linearGradient>
    <linearGradient id="cyberBlue" x1="0%" y1="0%" x2="100%" y2="100%">
      <stop offset="0%" style="stop-color:#0066ff;stop-opacity:1" />
      <stop offset="100%" style="stop-color:#0099ff;stop-opacity:1" />
    </linearGradient>
    <filter id="neonGlow">
      <feGaussianBlur stdDeviation="4" result="coloredBlur"/>
      <feMerge> 
        <feMergeNode in="coloredBlur"/>
        <feMergeNode in="SourceGraphic"/>
      </feMerge>
    </filter>
  </defs>
  
  <!-- Quantum Core -->
  <circle cx="100" cy="100" r="30" fill="none" stroke="url(#cyberGreen)" stroke-width="4" filter="url(#neonGlow)"/>
  <circle cx="100" cy="100" r="20" fill="none" stroke="url(#cyberBlue)" stroke-width="2" opacity="0.8"/>
  
  <!-- 8K in quantum style -->
  <text x="100" y="108" text-anchor="middle" font-family="Arial, sans-serif" font-size="18" font-weight="bold" fill="#00ff88" filter="url(#neonGlow)">8K</text>
  
  <!-- Digital Matrix Grid -->
  <g opacity="0.4">
    <line x1="20" y1="20" x2="180" y2="20" stroke="#00ff88" stroke-width="1"/>
    <line x1="20" y1="40" x2="180" y2="40" stroke="#00ff88" stroke-width="1"/>
    <line x1="20" y1="160" x2="180" y2="160" stroke="#00ff88" stroke-width="1"/>
    <line x1="20" y1="180" x2="180" y2="180" stroke="#00ff88" stroke-width="1"/>
    
    <line x1="20" y1="20" x2="20" y2="180" stroke="#00ff88" stroke-width="1"/>
    <line x1="40" y1="20" x2="40" y2="180" stroke="#00ff88" stroke-width="1"/>
    <line x1="160" y1="20" x2="160" y2="180" stroke="#00ff88" stroke-width="1"/>
    <line x1="180" y1="20" x2="180" y2="180" stroke="#00ff88" stroke-width="1"/>
  </g>
  
  <!-- Cyber Arrows -->
  <polygon points="60,50 80,40 80,45 75,45 75,55 80,55 80,60" fill="url(#cyberBlue)" opacity="0.8">
    <animateTransform attributeName="transform" type="translate" values="0,0;10,0;0,0" dur="2s" repeatCount="indefinite"/>
  </polygon>
  
  <polygon points="140,150 120,160 120,155 125,155 125,145 120,145 120,140" fill="url(#cyberBlue)" opacity="0.8">
    <animateTransform attributeName="transform" type="translate" values="0,0;-10,0;0,0" dur="2s" repeatCount="indefinite"/>
  </polygon>
  
  <!-- Data Streams -->
  <path d="M 40 80 Q 60 60 80 80 T 120 80" 
        fill="none" stroke="url(#cyberGreen)" stroke-width="2" opacity="0.6">
    <animate attributeName="stroke-dasharray" values="0,100;50,50;100,0" dur="3s" repeatCount="indefinite"/>
  </path>
  
  <path d="M 160 120 Q 140 140 120 120 T 80 120" 
        fill="none" stroke="url(#cyberBlue)" stroke-width="2" opacity="0.6">
    <animate attributeName="stroke-dasharray" values="100,0;50,50;0,100" dur="3s" repeatCount="indefinite"/>
  </path>
  
  <!-- Quantum Particles -->
  <circle cx="70" cy="70" r="3" fill="#00ff88">
    <animate attributeName="r" values="2;5;2" dur="1.5s" repeatCount="indefinite"/>
    <animate attributeName="opacity" values="0.5;1;0.5" dur="1.5s" repeatCount="indefinite"/>
  </circle>
  
  <circle cx="130" cy="130" r="3" fill="#0099ff">
    <animate attributeName="r" values="5;2;5" dur="1.8s" repeatCount="indefinite"/>
    <animate attributeName="opacity" values="1;0.5;1" dur="1.8s" repeatCount="indefinite"/>
  </circle>
  
  <circle cx="150" cy="70" r="3" fill="#00ff88">
    <animate attributeName="r" values="3;6;3" dur="2.2s" repeatCount="indefinite"/>
    <animate attributeName="opacity" values="0.7;1;0.7" dur="2.2s" repeatCount="indefinite"/>
  </circle>
  
  <!-- Cyber Frame -->
  <rect x="15" y="15" width="170" height="170" fill="none" stroke="url(#cyberGreen)" stroke-width="2" opacity="0.3"/>
  
  <!-- Corner Brackets -->
  <g stroke="url(#cyberBlue)" stroke-width="3" fill="none">
    <path d="M 25 35 L 25 25 L 35 25"/>
    <path d="M 175 35 L 175 25 L 165 25"/>
    <path d="M 25 165 L 25 175 L 35 175"/>
    <path d="M 175 165 L 175 175 L 165 175"/>
  </g>
  
  <!-- Binary Code Effect -->
  <text x="15" y="95" font-family="monospace" font-size="8" fill="#00ff88" opacity="0.5">01001000</text>
  <text x="15" y="105" font-family="monospace" font-size="8" fill="#00ff88" opacity="0.5">01001011</text>
  
  <text x="160" y="95" font-family="monospace" font-size="8" fill="#0099ff" opacity="0.5">11101001</text>
  <text x="160" y="105" font-family="monospace" font-size="8" fill="#0099ff" opacity="0.5">11000110</text>
</svg>