<svg width="200" height="80" viewBox="0 0 200 80" xmlns="http://www.w3.org/2000/svg">
  <defs>
    <!-- Gradientes -->
    <linearGradient id="grad1" x1="0%" y1="0%" x2="100%" y2="100%">
      <stop offset="0%" style="stop-color:#0ea5e9;stop-opacity:1" />
      <stop offset="50%" style="stop-color:#3b82f6;stop-opacity:1" />
      <stop offset="100%" style="stop-color:#6366f1;stop-opacity:1" />
    </linearGradient>
    <linearGradient id="grad2" x1="0%" y1="0%" x2="100%" y2="0%">
      <stop offset="0%" style="stop-color:#10b981;stop-opacity:1" />
      <stop offset="100%" style="stop-color:#059669;stop-opacity:1" />
    </linearGradient>
    <!-- Efeito de brilho -->
    <filter id="glow">
      <feGaussianBlur stdDeviation="2" result="coloredBlur"/>
      <feMerge> 
        <feMergeNode in="coloredBlur"/>
        <feMergeNode in="SourceGraphic"/>
      </feMerge>
    </filter>
  </defs>
  
  <!-- OPÇÃO 1: Cubo 3D com conexões de rede -->
  <g transform="translate(10, 10)">
    
    <!-- Cubo 3D isométrico -->
    <g>
      <!-- Face frontal -->
      <polygon points="15,45 45,45 45,15 15,15" fill="url(#grad1)" stroke="#1e40af" stroke-width="2"/>
      <!-- Face superior -->
      <polygon points="15,15 25,5 55,5 45,15" fill="#60a5fa" stroke="#1e40af" stroke-width="2"/>
      <!-- Face lateral -->
      <polygon points="45,15 55,5 55,35 45,45" fill="#3b82f6" stroke="#1e40af" stroke-width="2"/>
      
      <!-- "8K" no centro do cubo -->
      <text x="30" y="35" font-family="Arial Black, sans-serif" font-size="18" font-weight="900" text-anchor="middle" fill="white" filter="url(#glow)">8K</text>
      
      <!-- Pontos de conexão nas arestas -->
      <circle cx="15" cy="15" r="3" fill="#10b981"/>
      <circle cx="45" cy="15" r="3" fill="#10b981"/>
      <circle cx="15" cy="45" r="3" fill="#10b981"/>
      <circle cx="45" cy="45" r="3" fill="#10b981"/>
      <circle cx="25" cy="5" r="3" fill="#10b981"/>
      <circle cx="55" cy="5" r="3" fill="#10b981"/>
      <circle cx="55" cy="35" r="3" fill="#10b981"/>
    </g>
    
    <!-- Conexões de rede emanando do cubo -->
    <g stroke="url(#grad2)" stroke-width="3" opacity="0.8">
      <!-- Linhas saindo do cubo -->
      <line x1="12" y1="15" x2="5" y2="8"/>
      <line x1="48" y1="15" x2="65" y2="8"/>
      <line x1="15" y1="48" x2="5" y2="55"/>
      <line x1="45" y1="48" x2="65" y2="55"/>
      <line x1="58" y1="5" x2="70" y2="0"/>
      <line x1="58" y1="35" x2="70" y2="40"/>
    </g>
    
    <!-- Nós de rede externos -->
    <g fill="url(#grad2)">
      <circle cx="5" cy="8" r="2"/>
      <circle cx="65" cy="8" r="2"/>
      <circle cx="5" cy="55" r="2"/>
      <circle cx="65" cy="55" r="2"/>
      <circle cx="70" cy="0" r="2"/>
      <circle cx="70" cy="40" r="2"/>
    </g>
  </g>
  
  <!-- Texto da empresa -->
  <g transform="translate(90, 15)">
    <text x="0" y="20" font-family="Arial, sans-serif" font-size="24" font-weight="800" fill="#1f2937">8K</text>
    <text x="35" y="12" font-family="Arial, sans-serif" font-size="11" font-weight="600" fill="#4b5563">SOLUÇÕES</text>
    <text x="35" y="25" font-family="Arial, sans-serif" font-size="11" font-weight="600" fill="#4b5563">EM TI</text>
    
    <!-- Especialidades -->
    <text x="0" y="40" font-family="Arial, sans-serif" font-size="8" font-weight="500" fill="#10b981">INFRAESTRUTURA • MPLS • VPN</text>
    <text x="0" y="52" font-family="Arial, sans-serif" font-size="8" font-weight="500" fill="#6366f1">CLOUD • SEGURANÇA • REDES</text>
  </g>
</svg>