<svg width="200" height="80" viewBox="0 0 200 80" xmlns="http://www.w3.org/2000/svg">
  <defs>
    <linearGradient id="shieldGrad3" x1="0%" y1="0%" x2="100%" y2="100%">
      <stop offset="0%" style="stop-color:#7c3aed;stop-opacity:1" />
      <stop offset="50%" style="stop-color:#2563eb;stop-opacity:1" />
      <stop offset="100%" style="stop-color:#10b981;stop-opacity:1" />
    </linearGradient>
    <filter id="innerGlow">
      <feGaussianBlur stdDeviation="3" result="coloredBlur"/>
      <feMerge> 
        <feMergeNode in="coloredBlur"/>
        <feMergeNode in="SourceGraphic"/>
      </feMerge>
    </filter>
  </defs>
  
  <!-- Versão minimalista elegante -->
  <g transform="translate(10, 10)">
    
    <!-- Escudo minimalista -->
    <path d="M30,12 Q38,12 42,20 L42,34 Q42,48 30,52 Q18,48 18,34 L18,20 Q22,12 30,12 Z" 
          fill="url(#shieldGrad3)" 
          stroke="#1e40af" 
          stroke-width="2"/>
    
    <!-- Padrão geométrico sutil -->
    <g stroke="#a5b4fc" stroke-width="0.8" fill="none" opacity="0.6">
      <!-- Linhas diagonais -->
      <line x1="25" y1="22" x2="35" y2="32"/>
      <line x1="35" y1="22" x2="25" y2="32"/>
      <line x1="25" y1="32" x2="35" y2="42"/>
      <line x1="35" y1="32" x2="25" y2="42"/>
    </g>
    
    <!-- "8K" elegante -->
    <text x="30" y="35" font-family="Arial, sans-serif" font-size="12" font-weight="700" text-anchor="middle" fill="white">8K</text>
    
    <!-- Fluxo de dados lateral minimalista -->
    <g>
      <!-- Pontos fluindo horizontalmente -->
      <g opacity="0.8">
        <circle cx="5" cy="25" r="1" fill="#10b981">
          <animateTransform attributeName="transform" type="translate" 
                           values="0,0; 55,0; 0,0" 
                           dur="3s" repeatCount="indefinite"/>
        </circle>
        <circle cx="8" cy="32" r="1" fill="#fbbf24">
          <animateTransform attributeName="transform" type="translate" 
                           values="0,0; 49,0; 0,0" 
                           dur="3.5s" repeatCount="indefinite"/>
        </circle>
        <circle cx="6" cy="39" r="1" fill="#8b5cf6">
          <animateTransform attributeName="transform" type="translate" 
                           values="0,0; 51,0; 0,0" 
                           dur="4s" repeatCount="indefinite"/>
        </circle>
      </g>
      
      <!-- Linhas guia sutis -->
      <g stroke="#e5e7eb" stroke-width="0.5" fill="none" opacity="0.3">
        <line x1="5" y1="25" x2="55" y2="25"/>
        <line x1="5" y1="32" x2="55" y2="32"/>
        <line x1="5" y1="39" x2="55" y2="39"/>
      </g>
    </g>
    
    <!-- Terminais de conexão elegantes -->
    <g fill="#4b5563">
      <circle cx="5" cy="32" r="3" opacity="0.7"/>
      <circle cx="55" cy="32" r="3" opacity="0.7"/>
      <circle cx="5" cy="32" r="1" fill="#10b981"/>
      <circle cx="55" cy="32" r="1" fill="#ef4444"/>
    </g>
  </g>
  
  <!-- Texto da empresa -->
  <g transform="translate(75, 15)">
    <text x="0" y="20" font-family="Arial, sans-serif" font-size="24" font-weight="800" fill="#1f2937">8K</text>
    <text x="35" y="12" font-family="Arial, sans-serif" font-size="11" font-weight="600" fill="#4b5563">SOLUÇÕES</text>
    <text x="35" y="25" font-family="Arial, sans-serif" font-size="11" font-weight="600" fill="#4b5563">EM TI</text>
    
    <text x="0" y="38" font-family="Arial, sans-serif" font-size="8" font-weight="600" fill="#7c3aed">🔮 SMART SOLUTIONS</text>
    <text x="0" y="48" font-family="Arial, sans-serif" font-size="8" font-weight="600" fill="#2563eb">🎯 PRECISION TECH</text>
    <text x="0" y="58" font-family="Arial, sans-serif" font-size="8" font-weight="600" fill="#10b981">✨ EXCELLENCE</text>
  </g>
</svg>